<svg xmlns="http://www.w3.org/2000/svg" viewBox="0 0 1024 1024" width="1024" height="1024">
  <!-- Machinedrum Editor app icon (P4). Drawn from the editor's own plate tokens: the silver MKI plate over the black MKII key band, the orange LCD with its dark ink, one red LED. No Elektron logo or trademark. -->
  <defs>
    <linearGradient id="plate" x1="0" y1="0" x2="0" y2="1"><stop offset="0" stop-color="#e2e1db"/><stop offset="1" stop-color="#b4b3ac"/></linearGradient>
    <linearGradient id="lcd" x1="0" y1="0" x2="0" y2="1"><stop offset="0" stop-color="#e8552f"/><stop offset="1" stop-color="#b93b1f"/></linearGradient>
    <radialGradient id="led" cx=".5" cy=".5" r=".5"><stop offset="0" stop-color="#fff2ea"/><stop offset=".35" stop-color="#ff3b2f"/><stop offset="1" stop-color="#ff3b2f" stop-opacity="0"/></radialGradient>
    <clipPath id="body"><rect x="100" y="100" width="824" height="824" rx="185"/></clipPath>
  </defs>
  <g clip-path="url(#body)">
    <rect x="100" y="100" width="824" height="824" fill="url(#plate)"/>
    <rect x="100" y="672" width="824" height="260" fill="#1c1d20"/>
    <rect x="100" y="672" width="824" height="6" fill="#2c2d31"/>
  </g>
  <rect x="100.5" y="100.5" width="823" height="823" rx="185" fill="none" stroke="#000" stroke-opacity=".18" stroke-width="3"/>
  <rect x="186" y="200" width="652" height="360" rx="30" fill="#38100a" fill-opacity=".85"/>
  <rect x="200" y="214" width="624" height="332" rx="20" fill="url(#lcd)"/>
  <g>
    <rect x="314" y="254" width="31" height="31" rx="3" fill="#38100a"/>
    <rect x="458" y="254" width="31" height="31" rx="3" fill="#38100a"/>
    <rect x="314" y="290" width="31" height="31" rx="3" fill="#38100a"/>
    <rect x="350" y="290" width="31" height="31" rx="3" fill="#38100a"/>
    <rect x="422" y="290" width="31" height="31" rx="3" fill="#38100a"/>
    <rect x="458" y="290" width="31" height="31" rx="3" fill="#38100a"/>
    <rect x="314" y="326" width="31" height="31" rx="3" fill="#38100a"/>
    <rect x="386" y="326" width="31" height="31" rx="3" fill="#38100a"/>
    <rect x="458" y="326" width="31" height="31" rx="3" fill="#38100a"/>
    <rect x="314" y="362" width="31" height="31" rx="3" fill="#38100a"/>
    <rect x="386" y="362" width="31" height="31" rx="3" fill="#38100a"/>
    <rect x="458" y="362" width="31" height="31" rx="3" fill="#38100a"/>
    <rect x="314" y="398" width="31" height="31" rx="3" fill="#38100a"/>
    <rect x="458" y="398" width="31" height="31" rx="3" fill="#38100a"/>
    <rect x="314" y="434" width="31" height="31" rx="3" fill="#38100a"/>
    <rect x="458" y="434" width="31" height="31" rx="3" fill="#38100a"/>
    <rect x="314" y="470" width="31" height="31" rx="3" fill="#38100a"/>
    <rect x="458" y="470" width="31" height="31" rx="3" fill="#38100a"/>
    <rect x="530" y="254" width="31" height="31" rx="3" fill="#38100a"/>
    <rect x="566" y="254" width="31" height="31" rx="3" fill="#38100a"/>
    <rect x="602" y="254" width="31" height="31" rx="3" fill="#38100a"/>
    <rect x="638" y="254" width="31" height="31" rx="3" fill="#38100a"/>
    <rect x="530" y="290" width="31" height="31" rx="3" fill="#38100a"/>
    <rect x="674" y="290" width="31" height="31" rx="3" fill="#38100a"/>
    <rect x="530" y="326" width="31" height="31" rx="3" fill="#38100a"/>
    <rect x="674" y="326" width="31" height="31" rx="3" fill="#38100a"/>
    <rect x="530" y="362" width="31" height="31" rx="3" fill="#38100a"/>
    <rect x="674" y="362" width="31" height="31" rx="3" fill="#38100a"/>
    <rect x="530" y="398" width="31" height="31" rx="3" fill="#38100a"/>
    <rect x="674" y="398" width="31" height="31" rx="3" fill="#38100a"/>
    <rect x="530" y="434" width="31" height="31" rx="3" fill="#38100a"/>
    <rect x="674" y="434" width="31" height="31" rx="3" fill="#38100a"/>
    <rect x="530" y="470" width="31" height="31" rx="3" fill="#38100a"/>
    <rect x="566" y="470" width="31" height="31" rx="3" fill="#38100a"/>
    <rect x="602" y="470" width="31" height="31" rx="3" fill="#38100a"/>
    <rect x="638" y="470" width="31" height="31" rx="3" fill="#38100a"/>
  </g>
  <g fill="#38100a" fill-opacity=".55"><rect x="252" y="508" width="24" height="10" rx="2"/><rect x="286" y="508" width="24" height="10" rx="2"/><rect x="320" y="508" width="24" height="10" rx="2"/><rect x="354" y="508" width="24" height="10" rx="2"/><rect x="388" y="508" width="24" height="10" rx="2"/><rect x="422" y="508" width="24" height="10" rx="2"/><rect x="456" y="508" width="24" height="10" rx="2"/><rect x="490" y="508" width="24" height="10" rx="2"/><rect x="524" y="508" width="24" height="10" rx="2"/><rect x="558" y="508" width="24" height="10" rx="2"/><rect x="592" y="508" width="24" height="10" rx="2"/><rect x="626" y="508" width="24" height="10" rx="2"/><rect x="660" y="508" width="24" height="10" rx="2"/><rect x="694" y="508" width="24" height="10" rx="2"/><rect x="728" y="508" width="24" height="10" rx="2"/><rect x="762" y="508" width="24" height="10" rx="2"/></g>
  <rect x="388" y="500" width="24" height="26" rx="3" fill="#38100a"/>
  <g><rect x="214" y="732" width="116" height="116" rx="18" fill="#0b0b0c" fill-opacity=".55"/><rect x="214" y="724" width="116" height="116" rx="18" fill="#d9d7d0"/><rect x="366" y="732" width="116" height="116" rx="18" fill="#0b0b0c" fill-opacity=".55"/><rect x="366" y="724" width="116" height="116" rx="18" fill="#d9d7d0"/><rect x="518" y="732" width="116" height="116" rx="18" fill="#0b0b0c" fill-opacity=".55"/><rect x="518" y="724" width="116" height="116" rx="18" fill="#d9d7d0"/><rect x="670" y="732" width="116" height="116" rx="18" fill="#0b0b0c" fill-opacity=".55"/><rect x="670" y="724" width="116" height="116" rx="18" fill="#d9d7d0"/></g>
  <circle cx="272" cy="628" r="62" fill="url(#led)"/>
  <circle cx="272" cy="628" r="22" fill="#ff3b2f"/>
  <g fill="#000" fill-opacity=".22"><circle cx="424" cy="628" r="16"/><circle cx="576" cy="628" r="16"/><circle cx="728" cy="628" r="16"/></g>
</svg>
